<svg xmlns="http://www.w3.org/2000/svg" width="54" height="54" viewBox="0 0 54 54">
  <g id="Group_7" data-name="Group 7" transform="translate(-273 -368)">
    <g id="Rectangle_5" data-name="Rectangle 5" transform="translate(273 368)" fill="#fff" stroke="#efefef" stroke-width="1">
      <rect width="54" height="54" rx="15" stroke="none"/>
      <rect x="0.5" y="0.5" width="53" height="53" rx="14.5" fill="none"/>
    </g>
    <path id="noun-payment-method-4410366" d="M107.589,24.552h-.625L92.8,17.075a.637.637,0,0,0-.928.254l-3.993,7.559-.131.254a.686.686,0,0,0-.076.316V36.92a.687.687,0,0,0,.687.687h19.233a.687.687,0,0,0,.687-.687V25.239a.687.687,0,0,0-.687-.687ZM92.754,36.233l-3.717-3.718V29.643l3.717-3.718h10.431l3.717,3.718v2.872l-3.717,3.718ZM89.037,25.926h1.78l-1.78,1.78Zm16.086,0h1.78v1.78ZM92.761,18.608l11.255,5.944h-4.4l-7.826-4.123Zm-1.608,3.037,5.5,2.907H89.621ZM89.037,34.453l1.78,1.78h-1.78Zm16.086,1.78,1.78-1.78v1.78ZM97.97,27.987a3.1,3.1,0,1,0,2.184.908A3.092,3.092,0,0,0,97.97,27.987Zm0,4.81a1.718,1.718,0,1,1,1.215-.5A1.719,1.719,0,0,1,97.97,32.8Z" transform="translate(202.028 364.464)" fill="#999"/>
  </g>
</svg>
