<?xml version="1.0" encoding="utf-8"?>
<!-- Generator: Adobe Illustrator 26.4.0, SVG Export Plug-In . SVG Version: 6.00 Build 0)  -->
<svg version="1.1" id="Layer_1" xmlns="http://www.w3.org/2000/svg" xmlns:xlink="http://www.w3.org/1999/xlink" x="0px" y="0px"
	 viewBox="0 0 17.6 17.8" style="enable-background:new 0 0 17.6 17.8;" xml:space="preserve">
<style type="text/css">
	.st0{stroke:#000000;}
</style>
<path id="Path_5" class="st0" d="M15.2,11.3c-0.5-0.2-0.8-0.7-0.7-1.2l0-3.8c0-3.1-2.5-5.6-5.6-5.6l0,0c-3.1,0-5.6,2.5-5.6,5.6
	l0,3.8c0,0.5-0.3,1-0.7,1.2c-1.1,0.5-1.8,1.5-1.8,2.7v0c0,0.2,0.2,0.4,0.4,0.4l0,0h4.8C6,16,7.4,17.2,9.1,17.1
	c1.4-0.1,2.6-1.3,2.7-2.7h4.8c0.2,0,0.4-0.2,0.4-0.4c0,0,0,0,0,0v0C16.9,12.8,16.2,11.7,15.2,11.3L15.2,11.3z M8.8,16.3
	c-1.1,0-2.1-0.8-2.2-1.9H11C10.9,15.5,9.9,16.3,8.8,16.3z M11.4,13.6H1.5c0.1-0.7,0.6-1.3,1.3-1.6C3.5,11.7,4,10.9,4,10.1l0-3.8
	c0-2.7,2.2-4.8,4.8-4.8l0,0c2.7,0,4.8,2.2,4.8,4.8l0,3.8c0,0.8,0.5,1.6,1.2,1.9c0.7,0.3,1.1,0.9,1.3,1.6L11.4,13.6z"/>
</svg>
